<svg width="142" height="148" viewBox="0 0 142 148" fill="none" xmlns="http://www.w3.org/2000/svg">
<path d="M76.9711 95.0607C75.6169 94.8962 74.3809 95.4718 73.1187 95.7595C70.3707 96.3625 67.6096 96.5544 64.8222 96.431C51.7004 95.8144 41.8656 89.264 34.897 77.9721C29.9665 69.9829 28.0206 61.0755 28.323 51.5651C28.5333 45.234 30.1769 39.4921 33.6874 34.3121C34.358 33.3118 34.9233 32.2292 35.5282 31.174C35.6991 30.8862 35.7254 30.571 35.5676 30.1188C35.1337 30.6669 34.7656 31.1603 34.3711 31.6262C34.0424 32.0373 33.9767 33.0651 33.0826 32.2429C33.0432 32.2018 32.7933 32.3388 32.7013 32.4484C31.2156 34.134 29.5589 35.6414 28.2178 37.4914C24.2471 42.8907 23.8132 49.1807 23.9709 55.5666C24.2339 66.0225 27.6787 75.5055 32.4515 84.5636C34.3711 88.2225 36.5669 91.6895 38.7232 95.184C38.8152 95.3347 39.065 95.4444 38.8283 95.691C38.5654 95.9514 38.3419 95.6636 38.2104 95.554C36.7115 94.3892 35.1863 93.2381 33.7795 91.9636C24.3917 83.4536 19.2902 72.6551 18.0674 59.8147C18.0411 59.6092 18.0674 59.3899 18.0148 59.1981C17.8308 58.691 17.3706 58.3347 16.9761 58.2662C16.6606 58.2114 16.6211 58.8418 16.5817 59.2118C16.253 62.4732 16.9235 65.5977 17.6993 68.7084C18.6459 72.4907 19.6715 76.2455 21.1178 79.9866C19.9739 79.8907 19.3033 79.0136 18.3304 78.5888C21.3282 86.3314 25.7591 93.1147 31.3733 99.0347C37.0139 104.996 43.6537 109.491 51.1482 112.601C49.4126 112.492 47.677 112.382 45.9283 112.273C45.8889 112.752 46.2702 112.725 46.4674 112.807C51.4243 115.068 56.552 116.617 61.9691 117.165C67.0969 117.685 72.1852 117.59 77.2604 116.658C77.5365 116.617 77.8257 116.63 78.1018 116.617C80.508 114.917 83.2428 114.027 85.9644 113.15C86.7533 112.903 87.7394 112.368 88.4889 113.396C97.7189 109.833 105.621 104.311 111.814 96.2803C118.427 87.7018 122.253 77.8214 124.278 67.1051C124.896 63.7888 125.251 60.4314 125.475 57.0603C125.79 52.1544 124.673 47.454 123.581 42.7536C122.03 36.0251 120.242 29.3788 117.559 23.0203C116.402 20.2658 115.088 17.5936 112.918 15.4969C112.432 15.0173 111.879 14.5788 111.275 14.2499C110.473 13.7977 110.052 14.1266 110.17 15.0858C110.302 16.2095 110.644 17.2647 111.064 18.3062C111.459 19.2792 110.985 20.0329 109.96 19.9644C109.197 19.9232 108.592 19.5944 108.185 18.7858C106.515 15.4969 104.267 12.7014 101.295 10.6047C101.032 10.4129 100.782 10.1936 100.493 10.0566C100.007 9.82361 99.3887 9.16583 99.0205 9.56324C98.4946 10.1388 99.2441 10.6321 99.5991 11.0981C99.7831 11.3447 99.8883 11.5777 99.7174 11.9751C98.3237 11.2625 97.3639 9.93324 95.7992 8.89176C96.3515 11.194 97.6137 12.9618 97.6794 15.1132C97.022 15.1955 96.8248 14.7021 96.5092 14.4144C93.7087 11.7832 90.8424 9.26176 87.7263 7.04176C87.3318 6.76768 86.898 6.53472 86.4904 6.30176C85.8198 6.67176 85.3859 7.38435 84.6496 7.63102C83.7555 7.9188 83.532 8.57657 83.6635 9.45361C84.242 9.85102 85.0441 9.74139 85.5305 10.3306C85.925 10.8377 85.1493 9.96065 84.413 10.4677C84.0054 10.7418 84.8863 11.0569 84.3735 10.591C83.795 10.0429 83.9922 11.0844 84.3735 10.591C84.3998 10.5636 84.3998 10.5088 84.413 10.4677C83.9133 10.4266 83.3874 10.3855 82.9009 10.3032C81.7965 10.0977 80.6526 10.4403 79.6007 9.89213C78.4963 10.0429 77.4181 10.3444 76.3006 10.0018C73.6709 9.89213 71.015 9.48102 68.1356 10.5225C69.7396 11.2762 71.1859 11.3036 72.5533 11.6188C73.9865 11.9477 75.4591 12.1532 76.6819 13.1262C77.852 12.7151 79.0091 12.2766 80.1924 11.9203C80.6263 11.7832 81.2311 11.7147 81.4283 12.3314C81.6518 13.044 80.9681 13.0577 80.5737 13.2632C79.8243 13.6469 78.825 13.6195 78.4043 14.6062C78.47 14.7021 78.5489 14.7981 78.6278 14.894C78.6935 15.0036 78.7724 15.0995 78.8513 15.2092C78.9565 15.5244 79.0617 15.8258 79.1537 16.1547C80.9156 15.7573 82.5459 14.9488 84.2026 14.2636C85.0835 13.8936 78.115 16.4699 79.0222 16.1958C79.4693 16.0588 79.0222 16.1958 79.18 16.9221C79.3378 17.6347 79.8374 17.4977 79.4167 17.6621C76.7739 18.731 81.9411 16.6481 79.2852 17.7032C79.3115 18.7447 80.0872 19.334 80.5343 20.1425C81.7439 20.2247 82.5328 20.9647 82.993 22.4721C83.9133 23.0614 84.8731 23.4999 85.925 23.8014C87.6211 24.281 88.6861 25.6925 89.8694 26.9121C92.3413 29.5021 93.9191 32.4758 93.7613 36.2444C93.7218 37.3818 94.3267 38.1355 95.2076 38.6562C97.1141 39.7662 97.8241 41.5203 97.8898 43.7129C97.9818 47.3444 98.3368 50.9621 97.9555 54.5799C97.6531 57.4851 96.4961 60.1162 95.4705 62.761C94.0505 66.4062 92.9855 70.1473 91.9074 73.9021C91.8154 74.2173 91.8417 74.5599 91.9863 74.9573C93.6298 71.9973 95.2865 69.0236 96.9694 65.9814C97.3507 66.7488 97.0483 67.3381 96.8905 67.941C94.9578 74.834 92.3807 81.4392 88.3837 87.3592C86.6744 89.8944 84.6233 92.0321 81.7439 93.0736C81.7439 93.197 81.7439 93.3203 81.7702 93.4436" fill="#E55D1A"/>
<path d="M64.5524 131.611H69.6013C70.2193 131.611 70.3902 131.199 70.5348 130.692C70.995 129.185 71.4684 127.691 71.968 126.198C72.1126 125.732 72.2836 125.129 72.9541 125.444C73.5326 125.704 73.4406 126.184 73.2171 126.705C71.5341 130.638 70.3771 134.749 69.3515 138.901C69.2726 139.23 69.3515 139.764 68.7993 139.6C68.3523 139.463 68.0893 139.161 68.2602 138.545C68.7336 136.914 69.1149 135.256 69.6013 133.611C69.7986 132.94 69.6671 132.721 68.9965 132.748C67.6028 132.803 66.196 132.871 64.7891 132.858C64.1711 132.858 63.9476 133.159 63.803 133.694C63.3297 135.585 62.8563 137.476 62.3436 139.367C62.2384 139.723 62.383 140.436 61.7124 140.326C61.1076 140.216 61.0813 139.655 61.2128 139.12C62.2647 134.324 63.6584 129.637 65.7358 125.197C65.9198 124.814 66.1039 124.402 66.6298 124.731C67.0243 124.978 67.1295 125.321 66.8928 125.786C65.9067 127.65 65.2493 129.637 64.5524 131.624V131.611Z" fill="white" stroke="white" stroke-width="0.891212" stroke-miterlimit="10"/>
<path d="M20.2698 125.198C21.2559 125.979 20.7562 127.007 20.5064 127.829C19.6649 130.666 18.7972 133.516 17.1799 136.024C16.3385 136.901 15.7731 138.039 14.8264 138.82C14.0375 139.478 13.1961 140.163 12.1179 139.642C11.0792 139.135 10.619 138.176 10.6059 137.011C10.5796 132.859 11.8549 129.09 13.8272 125.541C14.0112 125.212 14.2611 124.746 14.7607 125.13C15.2209 125.472 15.2603 125.856 14.9053 126.391C12.9199 129.392 12.2625 132.859 11.6972 136.353C11.5788 137.052 11.3816 137.97 12.2099 138.368C13.0514 138.779 13.7614 138.231 14.3268 137.614C16.3648 135.366 17.7453 132.749 18.6657 129.803C19.1522 128.254 19.2705 126.541 20.2698 125.185V125.198Z" fill="white" stroke="white" stroke-width="0.891212" stroke-miterlimit="10"/>
<path d="M89.0589 132.27C89.4665 132.174 89.7294 132.105 89.9924 132.05C91.557 131.804 92.5957 133.174 91.9909 134.736C91.2809 136.6 89.7163 137.271 88.007 137.477C87.205 137.573 86.9289 137.806 86.7842 138.573C86.5213 139.875 86.1663 141.15 85.8244 142.438C85.7192 142.808 85.6929 143.397 85.1276 143.219C84.5885 143.068 84.7857 142.561 84.8515 142.164C85.4168 138.875 86.4424 135.723 87.5074 132.571C87.6783 132.064 87.8492 131.543 87.9939 131.036C88.1122 130.652 88.0859 130.104 88.6644 130.228C89.1246 130.324 89.2429 130.776 89.2298 131.214C89.2298 131.502 89.1378 131.79 89.0457 132.242L89.0589 132.27ZM88.0202 136.449C89.0852 136.12 90.2291 135.819 90.8207 134.613C91.0179 134.215 91.0442 133.804 90.7813 133.448C90.5052 133.092 90.1107 133.174 89.782 133.311C88.625 133.791 87.9018 134.668 87.6257 135.942C87.56 136.244 87.4942 136.559 88.0202 136.463V136.449Z" fill="white" stroke="white" stroke-width="0.891212" stroke-miterlimit="10"/>
<path d="M37.8263 137.241C35.7752 137.2 34.7365 138.297 34.4998 140.38C34.4341 141.079 34.1711 141.736 33.9871 142.421C33.8819 142.778 33.803 143.257 33.356 143.175C32.8695 143.079 33.0141 142.572 33.0404 142.23C33.1324 141.449 33.2639 140.681 33.4348 139.914C34.0791 136.858 35.1704 133.953 36.1828 131.034C36.288 130.732 36.3406 130.321 36.7613 130.362C36.9454 130.39 37.2609 130.677 37.2478 130.828C37.1689 132.623 38.4311 132.171 39.3647 132.24C39.483 132.24 39.6013 132.24 39.7197 132.267C40.6532 134.035 40.4034 135.254 38.865 136.474C38.5232 136.748 38.1682 136.981 37.8132 137.255L37.8263 137.241ZM36.7219 136.227C37.3924 136.036 38.2208 135.679 38.9176 135.008C39.3121 134.61 39.4435 134.172 39.0754 133.679C38.7335 133.199 38.2997 133.171 37.8 133.418C36.8665 133.843 36.2748 134.569 35.9067 135.556C35.67 136.214 35.9987 136.269 36.7087 136.241L36.7219 136.227Z" fill="white" stroke="white" stroke-width="0.891212" stroke-miterlimit="10"/>
<path d="M127.915 137.064C128.533 135.57 129.086 134.241 129.651 132.939C129.822 132.528 130.006 132.103 130.216 131.692C130.4 131.35 130.637 131.035 131.058 131.268C131.439 131.487 131.452 131.87 131.334 132.254C131.216 132.61 131.058 132.953 130.913 133.282C129.717 135.858 128.823 138.599 127.166 140.929C126.311 142.148 125.325 143.162 123.669 142.765C123.314 142.683 122.945 142.587 122.735 142.258C122.643 142.121 122.604 141.847 122.669 141.669C122.748 141.436 122.985 141.463 123.169 141.545C123.918 141.874 124.642 141.929 125.286 141.312C126.206 140.422 126.811 139.284 127.376 138.133C127.416 138.051 127.271 137.845 127.192 137.722C125.772 135.776 126.088 133.57 126.272 131.363C126.298 131.076 126.417 130.87 126.693 130.87C126.969 130.87 127.232 131.103 127.245 131.405C127.284 132.021 127.284 132.652 127.284 133.282C127.284 134.488 127.245 135.708 127.915 137.023V137.064Z" fill="white" stroke="white" stroke-width="0.891212" stroke-miterlimit="10"/>
<path d="M41.2006 137.009C41.2006 135.488 43.7514 131.624 45.0794 131.075C45.9997 130.692 46.4731 131.363 47.0516 131.857C47.5644 132.309 47.9194 132.706 47.6695 133.542C47.1436 135.255 47.4197 135.899 48.8003 136.858C49.0107 136.995 49.221 137.105 49.129 137.434C49.0238 137.777 48.7608 137.845 48.4584 137.804C47.4986 137.681 47.0121 136.941 46.6703 136.146C46.3547 135.42 46.1181 135.447 45.6316 136.009C44.8295 136.941 43.9223 137.79 42.739 138.16C41.8318 138.434 41.1875 137.927 41.1875 137.023L41.2006 137.009ZM42.5286 136.804C44.0669 136.16 45.1188 134.94 46.0786 133.611C46.3416 133.241 46.6308 132.898 46.1444 132.446C45.6184 131.939 45.2634 132.295 44.9216 132.651C43.8171 133.803 43.0019 135.173 42.5286 136.804Z" fill="white" stroke="white" stroke-width="0.891212" stroke-miterlimit="10"/>
<path d="M122.618 130.567C122.775 130.965 124.997 130.608 125.063 130.786C125.247 131.294 124.866 130.992 125.063 131.485C121.921 131.581 121.658 131.746 121.04 134.034C120.908 134.514 120.724 134.98 120.659 135.473C120.566 136.104 120.146 136.885 120.724 137.351C121.237 137.762 121.96 137.46 122.565 137.227C123.078 137.035 123.551 136.748 124.116 136.46C124.34 137.405 123.735 137.707 123.196 138.036C121.934 138.817 120.685 138.954 119.475 137.912C119.146 136.761 119.436 135.624 119.58 134.473C119.804 133.815 120.054 133.171 120.251 132.513C120.343 132.212 120.566 131.801 120.172 131.636C119.212 131.239 119.738 130.732 120.014 130.225C120.856 130.362 121.474 130.115 121.763 129.197C121.986 128.416 122.696 127.964 123.038 127.278C123.38 127.635 123.485 127.196 123.709 127.621" fill="white"/>
<path d="M122.618 130.567C122.775 130.965 124.997 130.608 125.063 130.786C125.247 131.294 124.866 130.992 125.063 131.485C121.921 131.581 121.658 131.746 121.04 134.034C120.908 134.514 120.724 134.98 120.659 135.473C120.566 136.104 120.146 136.885 120.724 137.351C121.237 137.762 121.96 137.46 122.565 137.227C123.078 137.035 123.551 136.748 124.116 136.46C124.34 137.405 123.735 137.707 123.196 138.036C121.934 138.817 120.685 138.954 119.475 137.912C119.146 136.761 119.436 135.624 119.58 134.473C119.804 133.815 120.054 133.171 120.251 132.513C120.343 132.212 120.566 131.801 120.172 131.636C119.212 131.239 119.738 130.732 120.014 130.225C120.856 130.362 121.474 130.115 121.763 129.197C121.986 128.416 122.696 127.964 123.038 127.278C123.38 127.635 123.485 127.196 123.709 127.621" stroke="white" stroke-width="0.891212" stroke-miterlimit="10"/>
<path d="M101.972 136.516C102.288 137.119 101.972 137.475 101.604 137.722C101.17 138.01 100.71 138.297 100.223 138.462C98.159 139.147 97.0677 138.229 97.265 135.995C97.3833 134.748 97.8435 133.597 98.1328 132.391C98.1853 132.131 98.4878 131.761 97.9092 131.665C97.5148 131.61 97.4359 131.267 97.4622 130.897C97.5016 130.418 97.9881 130.24 98.2116 130.281C99.2898 130.418 99.5922 129.678 99.842 128.869C99.9866 128.362 100.328 128.074 100.683 127.745C100.933 127.513 101.196 127.334 101.525 127.608C101.827 127.869 101.827 128.143 101.63 128.485C101.328 129.006 101.091 129.568 100.815 130.144C101.341 130.445 101.814 130.198 102.274 130.212C102.787 130.24 102.998 130.473 103.024 130.98C103.05 131.487 102.695 131.459 102.366 131.487H102.13C101.341 131.651 100.315 131.158 99.7894 132.021C98.9085 133.487 98.5535 135.173 98.4352 136.886C98.3957 137.489 98.9216 137.42 99.3161 137.434C100.302 137.475 101.131 136.927 101.972 136.502V136.516Z" fill="white" stroke="white" stroke-width="0.891212" stroke-miterlimit="10"/>
<path d="M107.505 130.951C108.951 131.431 109.661 132.239 109.74 133.514C109.241 135.295 109.464 136.008 110.845 136.803C111.134 136.967 111.292 137.118 111.213 137.474C111.121 137.885 110.818 137.83 110.542 137.803C109.872 137.762 109.477 137.282 109.109 136.775C108.82 136.378 108.623 135.926 108.333 135.419C107.466 136.241 106.677 137.186 105.625 137.776C105.007 138.118 104.336 138.584 103.639 137.954C102.969 137.323 103.245 136.583 103.561 135.885C104.481 133.897 105.375 131.897 107.492 130.938L107.505 130.951ZM104.481 136.666C104.902 136.94 105.204 136.707 105.48 136.488C106.506 135.693 107.4 134.761 108.162 133.665C108.465 133.253 108.701 132.815 108.162 132.39C107.689 132.006 107.347 132.294 107.032 132.623C105.914 133.774 105.138 135.172 104.481 136.652V136.666Z" fill="white" stroke="white" stroke-width="0.891212" stroke-miterlimit="10"/>
<path d="M83.8941 131.517C82.6055 131.846 81.7378 132.682 81.0672 133.833C80.6991 134.463 80.7911 134.902 81.3433 135.327C81.9876 135.834 82.645 136.3 83.092 137.012C83.5785 137.78 83.4207 138.342 82.5924 138.671C81.2118 139.219 79.9759 138.89 79.3711 137.739C80.2652 137.588 81.1987 137.835 82.1059 137.286C81.6589 136.93 81.2381 136.629 80.8568 136.286C79.5683 135.149 79.4237 133.806 80.4887 132.463C81.3039 131.449 82.3557 130.763 83.5391 130.311C84.4463 129.969 85.1168 130.339 85.4455 131.271C85.6822 131.956 85.0116 133.271 84.3805 133.449C83.802 133.586 83.5259 133.285 83.6311 132.709C83.6837 132.408 83.9466 132.148 84.1176 131.873C84.2622 131.572 84.2491 131.421 83.8809 131.545L83.8941 131.517Z" fill="white" stroke="white" stroke-width="0.891212" stroke-miterlimit="10"/>
<path d="M50.1421 137.711C51.1676 137.615 52.0485 137.806 52.9821 137.299C52.5219 136.902 52.1011 136.573 51.6935 136.217C50.4445 135.079 50.3261 133.682 51.4437 132.393C52.1932 131.516 53.1398 130.872 54.1654 130.406C54.9411 130.064 55.6643 130.05 56.1639 130.886C56.6504 131.708 56.2691 132.407 55.7695 133.038C55.5196 133.353 55.1909 133.668 54.7439 133.325C54.3495 133.024 54.5204 132.695 54.7176 132.352C54.8096 132.202 54.8228 131.982 54.8754 131.791C53.5737 131.736 51.9959 133.079 51.7593 134.367C51.6541 134.97 52.0485 135.189 52.3772 135.449C53.0215 135.956 53.6921 136.395 54.0733 137.162C54.3232 137.669 54.3232 138.122 53.8367 138.478C52.8111 139.218 50.9835 138.889 50.1289 137.697L50.1421 137.711Z" fill="white" stroke="white" stroke-width="0.891212" stroke-miterlimit="10"/>
<path d="M72.3988 136.475C72.3725 134.597 73.9502 132.144 75.6332 131.404C77.0532 130.774 78.3154 131.733 78.2102 133.35C78.0788 135.337 76.0408 137.914 74.2001 138.393C73.2402 138.64 72.4251 137.763 72.4119 136.475H72.3988ZM77.0006 133.529C77.0006 133.035 77.0401 132.679 76.6851 132.514C76.3169 132.35 75.9882 132.487 75.6858 132.734C74.5288 133.666 74.0028 134.995 73.4901 136.365C73.3717 136.667 73.4506 136.954 73.6741 137.16C73.9502 137.42 74.3052 137.352 74.5682 137.187C75.9356 136.31 76.7245 135.022 76.9875 133.542L77.0006 133.529Z" fill="white" stroke="white" stroke-width="0.891212" stroke-miterlimit="10"/>
<path d="M112.083 134.804C113.096 132.05 114.095 129.296 115.107 126.527C115.265 126.103 115.265 125.39 115.949 125.554C116.646 125.719 116.54 126.445 116.422 126.911C116.159 127.87 115.751 128.761 115.396 129.693C114.726 131.42 113.95 133.119 113.582 134.955C113.004 135.805 112.99 136.819 112.793 137.778C112.727 138.121 112.885 138.779 112.294 138.71C111.754 138.655 111.689 138.066 111.728 137.614C111.82 136.668 111.978 135.723 112.109 134.791L112.083 134.804Z" fill="white" stroke="white" stroke-width="0.891212" stroke-miterlimit="10"/>
<path d="M115.04 135.736C115.987 135.311 115.974 134.269 116.329 133.475C116.526 133.063 116.539 132.351 117.223 132.584C117.802 132.776 117.736 133.406 117.618 133.872C117.276 135.105 116.855 136.311 116.46 137.531C116.145 137.682 116.342 138.504 115.737 138.23C115.382 138.065 115.225 137.586 115.343 137.161C115.527 136.585 115.474 136.133 115.027 135.736H115.04Z" fill="white" stroke="white" stroke-width="0.891212" stroke-miterlimit="10"/>
<path d="M93.2812 137.217C93.5179 135.723 94.0307 134.284 94.5829 132.873C94.8327 132.256 95.2403 132.544 95.4507 132.941C95.6479 133.325 95.5427 133.736 95.4113 134.147C95.0431 135.23 94.7144 136.326 94.3068 137.395C94.1885 137.697 94.2674 138.368 93.6494 138.19C93.2287 138.067 93.3996 137.573 93.2812 137.203V137.217Z" fill="white" stroke="white" stroke-width="0.891212" stroke-miterlimit="10"/>
<path d="M95.9064 130.036C95.3936 129.912 95.0912 129.597 95.249 129.227C95.4856 128.706 95.5382 127.884 96.2219 127.816C96.7084 127.775 96.9319 128.323 96.8399 128.816C96.7347 129.419 96.3929 129.858 95.8932 130.036H95.9064Z" fill="white" stroke="white" stroke-width="0.891212" stroke-miterlimit="10"/>
<path d="M114.477 135.283C114.582 135.352 114.674 135.434 114.779 135.516C114.674 135.448 114.582 135.365 114.477 135.283Z" fill="white" stroke="white" stroke-width="0.891212" stroke-miterlimit="10"/>
<path d="M19.3647 136.516C19.5882 134.872 20.2982 133.419 21.613 132.323C22.0338 131.981 22.5729 131.83 23.0856 132.063C23.9534 132.433 24.2953 132.063 24.5582 131.227C25.0579 129.665 25.5049 128.048 26.3332 126.622C26.5305 126.294 26.6356 125.608 27.2536 125.896C27.8453 126.184 27.7795 126.677 27.556 127.266C26.5567 129.747 25.518 132.214 25.0447 134.899C24.8738 135.9 24.9658 136.886 24.9001 137.887C24.8606 138.394 25.0973 139.148 24.3347 139.175C23.4801 139.216 23.7562 138.38 23.6773 137.846V137.599C23.6773 136.626 23.296 136.64 22.6649 137.133C22.1521 137.544 21.5867 137.873 20.9425 137.983C20.0879 138.12 19.3516 137.476 19.3516 136.503L19.3647 136.516ZM21.1397 136.928C22.0469 136.955 23.9534 134.927 23.914 134.05C23.8745 133.269 23.1119 132.858 22.4282 133.296C21.4027 133.954 20.9556 135.023 20.6401 136.16C20.5217 136.599 20.7453 136.873 21.1266 136.914L21.1397 136.928Z" fill="white" stroke="white" stroke-width="0.891212" stroke-miterlimit="10"/>
<path d="M27.2619 136.258C27.1699 134.6 27.9456 133.339 28.5373 132.037C28.6819 131.708 28.9317 131.338 29.3788 131.53C29.8521 131.722 29.6943 132.133 29.576 132.489C29.2736 133.394 28.9317 134.285 28.6556 135.203C28.511 135.696 28.2086 136.34 28.7871 136.655C29.3656 136.971 29.7338 136.354 30.0625 135.956C30.8382 134.984 31.443 133.915 31.6008 132.64C31.6666 132.051 31.8769 131.64 32.508 131.777C33.1654 131.914 33.1129 132.462 32.9551 132.969C32.7184 133.75 32.4686 134.545 32.1925 135.326C31.9032 136.135 31.706 136.916 32.3634 137.656C32.6527 137.985 32.6658 138.355 32.2977 138.629C31.9164 138.903 31.6008 138.684 31.3641 138.382C31.1932 138.149 31.0354 137.889 30.9697 137.628C30.7988 137.012 30.5227 137.039 30.1282 137.395C30.0362 137.478 29.9179 137.532 29.8258 137.601C29.2473 137.985 28.7082 138.423 27.9588 137.998C27.2225 137.587 27.2093 136.888 27.2751 136.285V136.258H27.2619Z" fill="white" stroke="white" stroke-width="0.891212" stroke-miterlimit="10"/>
<path d="M119.153 128.295C119.114 128.692 119.074 129.076 119.022 129.459C118.982 129.459 118.943 129.459 118.903 129.501C118.43 129.898 117.891 130.336 117.365 129.734C116.918 129.226 117.404 128.761 117.68 128.322C118.167 127.541 118.653 127.897 119.14 128.322V128.295H119.153Z" fill="white" stroke="white" stroke-width="0.891212" stroke-miterlimit="10"/>
</svg>
